<svg xmlns="http://www.w3.org/2000/svg" width="27" height="32" viewBox="0 0 27 32">
    <g fill="#000" fill-rule="nonzero">
        <path d="M13.978 21.405h-.956l-4.526-4.472.954-.942 4.05 4 4.05-4 .954.942z"/>
        <path d="M12.825 12h1.35v8h-1.35zM8.1 24h10.8v1.333H8.1zM7.422 9.333H2.7V8h4.722c.374 0 .678-.3.678-.67V2.668h1.35V7.33c0 1.104-.91 2.002-2.028 2.002z"/>
        <path d="M24.3 32H2.7C1.21 32 0 30.804 0 29.333V7.328l.197-.472L6.942.195 7.42 0H24.3C25.789 0 27 1.196 27 2.667v26.666C27 30.804 25.789 32 24.3 32zM1.35 7.604v21.73c0 .735.606 1.333 1.35 1.333h21.6c.745 0 1.35-.598 1.35-1.334V2.667c0-.735-.605-1.334-1.35-1.334H7.7l-6.35 6.271z"/>
    </g>
</svg>
