<svg xmlns="http://www.w3.org/2000/svg" width="10" height="8" viewBox="0 0 10 8">
    <path fill="#FFF" fill-rule="evenodd" d="M8.822 1.265c.424-.25.748-.646.902-1.117-.398.231-.836.4-1.304.49A2.06 2.06 0 0 0 6.923 0C5.79 0 4.872.905 4.872 2.02c0 .158.018.312.053.46A5.854 5.854 0 0 1 .697.37a1.982 1.982 0 0 0-.278 1.015c0 .7.363 1.32.913 1.681a2.076 2.076 0 0 1-.93-.253v.025a2.03 2.03 0 0 0 1.646 1.98 2.108 2.108 0 0 1-.927.034 2.049 2.049 0 0 0 1.916 1.403 4.156 4.156 0 0 1-2.548.864c-.165 0-.328-.01-.489-.028A5.863 5.863 0 0 0 3.144 8c3.774 0 5.837-3.078 5.837-5.748l-.007-.262A4.063 4.063 0 0 0 10 .947c-.368.16-.763.27-1.178.318z"/>
</svg>
