<svg xmlns="http://www.w3.org/2000/svg" width="10" height="10" viewBox="0 0 10 10">
    <path fill="#FFF" fill-rule="evenodd" d="M9.113 7.24c0 1.033-.84 1.873-1.873 1.873H2.76A1.874 1.874 0 0 1 .887 7.24V2.76c0-1.033.84-1.873 1.873-1.873h4.48c1.033 0 1.873.84 1.873 1.873v4.48zM7.24 0A2.763 2.763 0 0 1 10 2.76v4.48A2.763 2.763 0 0 1 7.24 10H2.76A2.763 2.763 0 0 1 0 7.24V2.76A2.763 2.763 0 0 1 2.76 0h4.48zM5 6.69c-.932 0-1.69-.758-1.69-1.69 0-.932.758-1.69 1.69-1.69.932 0 1.69.758 1.69 1.69 0 .932-.758 1.69-1.69 1.69zm0-4.267A2.58 2.58 0 0 0 2.423 5 2.58 2.58 0 0 0 5 7.577 2.58 2.58 0 0 0 7.577 5 2.58 2.58 0 0 0 5 2.423zm2.685-.752a.653.653 0 0 0-.65.65c0 .172.069.34.19.46.121.122.289.191.46.191.171 0 .339-.07.46-.19a.653.653 0 0 0-.46-1.11z"/>
</svg>
