<svg width="40" height="42.5" xmlns="http://www.w3.org/2000/svg">
  <g transform="scale(0.5)">
    <rect transform="rotate(45 40,56.56339263916015) " height="32" width="32"
          y="40" x="24" fill="#b9a76d"/>
    <circle r="32" cy="34" cx="40" fill="#b9a76d"/>
    <path
      d="m44.2585,49.234l-4.258,-4.312l-4.118,4.17l-0.031,-7.527l8.397,0l0.01,7.669zm6.252,-29.224c0.416,0 0.754,0.328 0.754,0.733l0,36.644c0,0.551 -0.692,0.821 -1.084,0.423l-10.18,-10.31l-10.18,10.31c-0.394,0.398 -1.085,0.128 -1.085,-0.423l0,-36.645c0,-0.404 0.337,-0.732 0.754,-0.732l0.329,0c0.416,0 0.754,0.328 0.754,0.732l0,33.728l3.48,-3.525l-0.144,-35.204a0.744,0.744 0 0 1 0.75,-0.736l0.334,0c0.2,0 0.387,0.075 0.53,0.212a0.716,0.716 0 0 1 0.223,0.517l0.1,24.047l8.4,0l-0.032,-24.043c0,-0.196 0.078,-0.38 0.22,-0.518a0.76,0.76 0 0 1 0.534,-0.215l0.327,0c0.416,0 0.755,0.328 0.756,0.732l0.048,35.36l3.33,3.373l0,-33.727c0,-0.405 0.338,-0.733 0.755,-0.733l0.328,0l-0.001,0zm-10.678,15.797a0.744,0.744 0 0 1 -0.754,-0.732l0,-24.343c0,-0.403 0.338,-0.732 0.754,-0.732l0.329,0c0.416,0 0.754,0.329 0.754,0.732l0,24.343a0.744,0.744 0 0 1 -0.754,0.732l-0.329,0z"
      fill-rule="evenodd" fill="#000000"/>
  </g>
</svg>
