<svg xmlns="http://www.w3.org/2000/svg" xmlns:xlink="http://www.w3.org/1999/xlink" width="280" height="205" viewBox="0 0 280 205">
    <defs>
        <path id="a" d="M0 .019v10.37h9.081V.019z"/>
        <path id="c" d="M.615.018h10.391v10.37H.616V.019z"/>
        <path id="e" d="M0 10.981h146.625V.611H0z"/>
    </defs>
    <g fill="none" fill-rule="evenodd">
        <path fill="#FFF" d="M124 169h32v1h-32z"/>
        <g fill="#FFF">
            <path d="M73.806 108.944c0 7.282-5.488 12.052-12.133 12.052-6.596 0-12.084-4.77-12.084-12.052V85.847h2.266v23.097c0 5.926 4.43 9.742 9.818 9.742 5.386 0 9.867-3.816 9.867-9.742V85.847h2.266v23.097zM86.138 88.106v16.119h10.22c5.487 0 7.502-3.917 7.502-8.035 0-4.067-2.015-8.084-7.25-8.084H86.138zm0 18.379v13.958h-2.317V85.847h12.79c6.896 0 9.515 5.121 9.515 10.343 0 5.272-2.619 10.295-9.667 10.295h-.654l9.919 13.958h-2.77l-9.918-13.958h-6.898zM114.229 111.455c.353 3.616 3.675 7.231 8.71 7.231 5.74 0 8.811-3.314 9.415-6.327.704-4.87-2.919-7.23-7.3-8.235l-4.834-1.154c-7.048-1.507-8.005-5.574-8.005-8.386 0-5.423 5.287-9.14 10.674-9.14 5.84 0 10.372 3.466 10.624 9.039h-2.266c-.252-4.167-3.776-6.78-8.358-6.78-4.23 0-8.358 2.813-8.358 6.881 0 2.058.705 4.97 6.143 6.226l4.883 1.105c5.438 1.256 10.02 4.368 9.013 10.846-.807 3.917-4.582 8.185-11.631 8.185-6.444 0-10.623-4.77-10.976-9.491h2.266zM138.344 85.847h25.274v2.26H152.09v32.336h-2.266V88.107h-11.48zM195.538 85.847v34.596h-2.266v-16.118h-20.845v16.118h-2.266V85.847h2.266v16.319h20.845V85.847zM216.478 89.01l-7.654 19.934h15.358l-7.704-19.934zm-8.46 22.044l-3.625 9.389h-2.415l13.291-34.596h2.417l13.293 34.596h-2.418l-3.625-9.389H208.02zM237.42 85.847h2.265v32.337h15.206v2.26h-17.472zM261.534 85.847h2.266v32.337h15.204v2.26h-17.47zM133.295 60.94V46.237H145.7l.005 14.699-6.202-6.161-6.207 6.165zm19.388-46.668v53.597l-5.428-5.392-.017-55.138h-1.551l.012 37.357h-12.404V7.339h-1.55v55.142l-5.425 5.388V14.272h-1.55v57.315l14.732-14.634 14.732 14.634V14.272h-1.55z"/>
            <path d="M140.281 38.919L140.277.407h-1.55l.004 38.512zM5.111 134.884v3.978h2.546c1.301 0 1.782-.99 1.782-1.981 0-.976-.481-1.997-1.722-1.997H5.111zm5.88 9.318H9.24l-2.764-3.993H5.111v3.993H3.655v-10.665h4.11c2.25 0 3.163 1.672 3.163 3.344 0 1.577-.79 3.11-2.79 3.28l2.854 4.04zM23.837 133.538v1.346h-4.888v3.404h4.267v1.347H18.95v3.22h5.042v1.346h-6.483v-10.663zM33.44 143.01c1.365 0 2.032-.76 2.156-1.563.094-1.146-.853-1.688-1.814-1.904l-1.38-.342c-2.266-.571-2.606-1.857-2.606-2.785 0-1.796 1.644-3.002 3.457-3.002 1.955 0 3.445 1.206 3.445 3.125h-1.441c0-1.067-.854-1.748-2.018-1.748-1.04 0-2.002.634-2.002 1.61 0 .465.173 1.161 1.52 1.486l1.398.34c2 .511 3.069 1.64 2.854 3.344-.188 1.531-1.474 2.785-3.568 2.785-2.189 0-3.738-1.563-3.738-3.235h1.44c.019.929.948 1.89 2.298 1.89M50.335 133.538v1.361h-3.241v9.302h-1.458V134.9h-3.243v-1.361zM60.996 140.192l-1.768-4.735-1.768 4.735h3.536zm-4.032 1.3l-1.038 2.71h-1.537l4.064-10.664h1.55l4.05 10.663h-1.52l-1.04-2.708h-4.529zM76.03 140.534v-6.996h1.458v6.996c0 2.32-1.801 3.822-3.91 3.822-2.11 0-3.909-1.501-3.909-3.822v-6.996h1.457v6.996c0 1.469 1.135 2.43 2.451 2.43 1.32 0 2.452-.961 2.452-2.43M86.005 134.884v3.978h2.543c1.304 0 1.785-.99 1.785-1.981 0-.976-.481-1.997-1.722-1.997h-2.606zm5.878 9.318H90.13l-2.761-3.993h-1.365v3.993h-1.459v-10.665h4.11c2.249 0 3.166 1.672 3.166 3.344 0 1.577-.793 3.11-2.793 3.28l2.854 4.04zM103.72 140.192l-1.768-4.735-1.77 4.735h3.538zm-4.034 1.3l-1.039 2.71h-1.534l4.062-10.664h1.552l4.05 10.663h-1.522l-1.038-2.708h-4.531zM118.968 144.201l-4.87-8.033v8.033h-1.44v-10.663h1.426l4.823 7.97v-7.97h1.444V144.2zM134.434 133.538v1.361h-3.241v9.302h-1.459V134.9h-3.242v-1.361zM151.323 138.815a2.152 2.152 0 0 0-2.155 2.12c0 1.162.85 2.058 2.14 2.058 1.226 0 2.095-.85 2.14-1.964v-2.214h-2.125zm2.125-1.146v-1.377h1.334v1.393h1.35v1.13h-1.35v2.12c0 1.162.219 2.105 1.614 2.105v1.3c-1.165 0-2.049-.48-2.451-1.145-.542.744-1.568 1.146-2.637 1.146-2.064 0-3.49-1.501-3.49-3.406 0-1.16.606-2.197 1.58-2.816-.496-.465-.76-1.177-.76-1.92 0-1.47 1.211-2.661 2.78-2.661 1.083 0 2.045.619 2.572 1.516l-1.147.712c-.31-.527-.838-.882-1.426-.882-.824 0-1.428.556-1.428 1.315 0 .743.56 1.47 1.365 1.47h2.094zM172.613 139.233v3.622h2.854c1.056 0 1.707-.852 1.707-1.749 0-.852-.666-1.873-1.753-1.873h-2.808zm2.575-1.27c.948 0 1.429-.758 1.429-1.624 0-.93-.62-1.471-1.583-1.471h-2.421v3.095h2.575zm1.554.558c1.191.247 1.92 1.532 1.92 2.6 0 1.657-1.162 3.08-3.131 3.08h-4.374v-10.663h4.031c1.783 0 2.9 1.067 2.9 2.754 0 .898-.339 1.842-1.346 2.229zM185.15 144.202h1.44v-10.664h-1.44zM200.095 133.538v1.346h-4.888v3.404h4.267v1.347h-4.267v3.22h5.042v1.346h-6.483v-10.663zM208.24 134.884v3.978h2.542c1.305 0 1.786-.99 1.786-1.981 0-.976-.481-1.997-1.723-1.997h-2.606zm5.878 9.318h-1.753l-2.76-3.993h-1.366v3.993h-1.459v-10.665h4.11c2.25 0 3.167 1.672 3.167 3.344 0 1.577-.793 3.11-2.794 3.28l2.855 4.04zM228.703 144.201h-1.46v-4.643h-5.166v4.643h-1.44v-10.663h1.44v4.705h5.166v-4.705h1.46zM241.188 140.192l-1.768-4.735-1.77 4.735h3.538zm-4.035 1.3l-1.038 2.71h-1.534l4.062-10.664h1.552l4.05 10.663h-1.523l-1.037-2.708h-4.532zM256.221 140.534v-6.996h1.46v6.996c0 2.32-1.802 3.822-3.911 3.822-2.11 0-3.908-1.501-3.908-3.822v-6.996h1.456v6.996c0 1.469 1.135 2.43 2.452 2.43 1.32 0 2.451-.961 2.451-2.43M267.823 143.01c1.364 0 2.033-.76 2.157-1.563.094-1.146-.853-1.688-1.816-1.904l-1.38-.342c-2.264-.571-2.606-1.857-2.606-2.785 0-1.796 1.644-3.002 3.46-3.002 1.955 0 3.444 1.206 3.444 3.125h-1.443c0-1.067-.854-1.748-2.017-1.748-1.04 0-2 .634-2 1.61 0 .465.17 1.161 1.52 1.486l1.394.34c2.001.511 3.072 1.64 2.855 3.344-.185 1.531-1.474 2.785-3.568 2.785-2.186 0-3.739-1.563-3.739-3.235h1.444c.015.929.947 1.89 2.295 1.89M40.883 85.847L30.36 117.079l-7.602-26.11h-2.215l-7.654 26.11L2.367 85.847H0l11.782 34.596h2.366l7.502-25.458 7.452 25.458h2.416l11.781-34.596z"/>
        </g>
        <g transform="translate(67 194)">
            <g transform="translate(0 .593)">
                <mask id="b" fill="#fff">
                    <use xlink:href="#a"/>
                </mask>
                <path fill="#FFF" d="M9.081 8.643C8.173 9.714 6.79 10.39 5.196 10.39A5.165 5.165 0 0 1 0 5.21 5.168 5.168 0 0 1 5.196.019c1.578 0 2.948.66 3.856 1.716l-1.043.85C7.31 1.837 6.328 1.34 5.196 1.34c-2.144 0-3.811 1.73-3.811 3.872s1.667 3.858 3.81 3.858c1.147 0 2.16-.499 2.844-1.291l1.042.865z" mask="url(#b)"/>
            </g>
            <g transform="translate(13.646 .593)">
                <mask id="d" fill="#fff">
                    <use xlink:href="#c"/>
                </mask>
                <path fill="#FFF" d="M5.797 9.069c2.158 0 3.811-1.717 3.811-3.858 0-2.142-1.653-3.872-3.811-3.872C3.652 1.339 2 3.069 2 5.21c0 2.141 1.652 3.858 3.797 3.858m0-9.05c2.932 0 5.21 2.317 5.21 5.192 0 2.86-2.278 5.178-5.21 5.178A5.143 5.143 0 0 1 .615 5.21C.615 2.336 2.878.018 5.797.018" mask="url(#d)"/>
            </g>
            <path fill="#FFF" d="M40.043.728h1.266l1.25 10.107H41.19l-.938-7.599-3.2 6.484H35.83L32.6 3.236l-.938 7.599h-1.37L31.542.728h1.266l3.618 7.422z"/>
            <mask id="f" fill="#fff">
                <use xlink:href="#e"/>
            </mask>
            <path fill="#FFF" d="M48.87 10.835h1.385V.728H48.87zM63.206 10.835l-4.674-7.613v7.613h-1.385V.728h1.37l4.629 7.555V.728h1.385v10.107zM78.404 2.855a3.754 3.754 0 0 0-2.47-.938c-2.145 0-3.797 1.745-3.797 3.886 0 2.142 1.652 3.873 3.796 3.873 1.846 0 3.185-1.056 3.275-2.728H76.29V5.759h4.496c0 3.55-1.92 5.222-4.853 5.222a5.143 5.143 0 0 1-5.181-5.178c0-2.874 2.263-5.192 5.181-5.192 1.354 0 2.576.514 3.468 1.335l-.997.91zM97.696 9.705c1.31 0 1.95-.718 2.07-1.481.088-1.085-.819-1.6-1.743-1.804L96.7 6.097c-2.174-.542-2.501-1.76-2.501-2.64 0-1.702 1.578-2.846 3.32-2.846 1.875 0 3.305 1.144 3.305 2.963h-1.385c0-1.012-.82-1.657-1.936-1.657-.997 0-1.92.601-1.92 1.525 0 .44.164 1.1 1.459 1.408l1.34.323c1.92.484 2.947 1.554 2.74 3.168-.18 1.452-1.415 2.64-3.425 2.64-2.099 0-3.588-1.481-3.588-3.065h1.385c.015.88.908 1.79 2.203 1.79M111.867 9.661c2.158 0 3.812-1.716 3.812-3.858 0-2.14-1.654-3.872-3.812-3.872-2.144 0-3.796 1.731-3.796 3.872 0 2.142 1.652 3.858 3.796 3.858m0-9.05c2.933 0 5.21 2.318 5.21 5.192 0 2.861-2.277 5.178-5.21 5.178a5.143 5.143 0 0 1-5.181-5.178c0-2.874 2.263-5.192 5.181-5.192M127.81 9.661c2.158 0 3.812-1.716 3.812-3.858 0-2.14-1.654-3.872-3.812-3.872-2.144 0-3.796 1.731-3.796 3.872 0 2.142 1.652 3.858 3.796 3.858m0-9.05c2.933 0 5.21 2.318 5.21 5.192 0 2.861-2.277 5.178-5.21 5.178a5.143 5.143 0 0 1-5.181-5.178c0-2.874 2.263-5.192 5.181-5.192M145.3 10.835l-4.674-7.613v7.613h-1.385V.728h1.37l4.63 7.555V.728h1.384v10.107z" mask="url(#f)"/>
        </g>
    </g>
</svg>
