<svg xmlns="http://www.w3.org/2000/svg" width="128" height="66" viewBox="0 0 128 66">
    <path fill="#FFF" fill-rule="evenodd" d="M1.022 32.937c-.085-.297.086-.509.385-.509h.897c.17 0 .342.149.384.297l2.97 10.983h.086L9.31 32.449c.043-.127.171-.233.364-.233h.384c.171 0 .32.106.364.233l3.631 11.259h.086l2.906-10.983c.042-.148.213-.297.384-.297h.898c.299 0 .47.212.384.51l-4.038 14.247a.41.41 0 0 1-.384.296h-.342c-.15 0-.3-.106-.363-.233l-3.697-11.47h-.106L6.15 47.248a.434.434 0 0 1-.364.233h-.342a.41.41 0 0 1-.384-.296L1.022 32.937zm21.107-.106c0-.212.192-.403.406-.403h.811c.235 0 .406.191.406.403v8.841c0 2.417 1.517 4.304 4.017 4.304 2.521 0 4.06-1.845 4.06-4.261V32.83c0-.212.17-.403.405-.403h.812c.214 0 .406.191.406.403v8.968c0 3.223-2.308 5.682-5.683 5.682-3.354 0-5.64-2.46-5.64-5.682v-8.968zm16.129 0c0-.212.17-.403.406-.403h5.533c2.564 0 4.658 1.993 4.658 4.516 0 1.95-1.304 3.583-3.163 4.325l2.928 5.386c.15.275 0 .614-.363.614h-1.09a.367.367 0 0 1-.342-.19l-2.842-5.619h-4.08v5.406a.418.418 0 0 1-.406.403h-.833a.404.404 0 0 1-.406-.403V32.831zm5.832 7.23a3.102 3.102 0 0 0 3.077-3.096c0-1.611-1.432-2.989-3.077-2.989h-4.145v6.085h4.145zm7.968 4.982c.107-.127.214-.276.32-.403.214-.275.45-.445.748-.19.15.127 1.71 1.61 3.61 1.61 1.731 0 2.864-1.08 2.864-2.331 0-1.463-1.282-2.332-3.739-3.35-2.35-1.018-3.76-1.972-3.76-4.39 0-1.44 1.154-3.773 4.55-3.773 2.094 0 3.654 1.081 3.654 1.081.128.064.384.318.128.721-.085.127-.17.276-.256.403-.193.297-.406.382-.748.191-.15-.085-1.496-.975-2.799-.975-2.264 0-2.948 1.441-2.948 2.332 0 1.42 1.09 2.247 2.884 2.99 2.884 1.165 4.743 2.247 4.743 4.706 0 2.205-2.115 3.816-4.615 3.816-2.52 0-4.23-1.463-4.508-1.717-.17-.148-.384-.318-.128-.72zM67.162 33.85h-3.718a.404.404 0 0 1-.406-.403v-.615c0-.212.171-.403.406-.403h9.059c.235 0 .406.191.406.403v.615a.404.404 0 0 1-.406.403h-3.718v13.017a.418.418 0 0 1-.406.403h-.811a.418.418 0 0 1-.406-.403V33.85zm8.737-1.018c0-.212.193-.403.406-.403h.834c.235 0 .405.191.405.403v6.19h8.674v-6.19c0-.212.171-.403.406-.403h.833c.214 0 .406.191.406.403v14.035a.419.419 0 0 1-.406.403h-.833a.404.404 0 0 1-.406-.403v-6.424h-8.674v6.424c0 .212-.17.403-.405.403h-.834a.419.419 0 0 1-.406-.403V32.831zM90.81 46.718l6.495-14.269c.064-.127.171-.233.363-.233h.214c.192 0 .3.106.363.233l6.452 14.27c.129.275-.042.55-.363.55h-.854a.393.393 0 0 1-.364-.233l-1.58-3.498H93.95l-1.56 3.498a.393.393 0 0 1-.363.233h-.855c-.32 0-.491-.275-.363-.55zm10.149-4.495c-1.047-2.31-2.073-4.643-3.12-6.954h-.17l-3.12 6.954h6.41zm6.707-9.392c0-.212.17-.403.406-.403h.833c.214 0 .406.191.406.403v13.018h6.153c.235 0 .406.19.406.403v.614a.404.404 0 0 1-.406.403h-7.392a.404.404 0 0 1-.406-.403V32.831zm11.13 0c0-.212.17-.403.406-.403h.833c.214 0 .406.191.406.403v13.018h6.153c.235 0 .406.19.406.403v.614a.404.404 0 0 1-.406.403h-7.392a.404.404 0 0 1-.406-.403V32.831zM6.91 56.922H5.815L4.66 55.191h-.377v1.731h-.912v-4.87h1.965c1.083 0 1.567.785 1.567 1.577 0 .7-.377 1.385-1.246 1.526l1.253 1.767zM4.284 52.86v1.526h.982c.477 0 .691-.396.691-.756 0-.354-.207-.77-.662-.77H4.284zm5.361-.806h3.034v.806h-2.13v1.265h1.867v.798H10.55v1.195h2.2v.805H9.645v-4.87zm6.424 3.449c.014.353.32.685.847.685.491 0 .79-.254.812-.586.021-.325-.2-.537-.677-.665l-.605-.155c-1.068-.311-1.24-.926-1.24-1.357 0-.855.748-1.428 1.653-1.428.926 0 1.63.559 1.63 1.47h-.91c0-.381-.278-.636-.734-.636-.406 0-.734.227-.734.573 0 .155.057.417.584.558l.606.177c1.096.297 1.381.911 1.338 1.484-.042.876-.826 1.378-1.723 1.378-1.047 0-1.759-.664-1.759-1.498h.912zm4.813-3.45h3.682v.828h-1.381v4.042h-.92V52.88h-1.38v-.827zm8.539 3.69h-1.83l-.449 1.18h-.969l1.837-4.87h.983l1.838 4.87h-.962l-.448-1.18zm-1.524-.792h1.224l-.62-1.858-.604 1.858zm8.025.255v-3.152h.912v3.152c0 1.088-.862 1.788-1.86 1.788-.996 0-1.865-.7-1.865-1.788v-3.152h.926v3.152c0 .565.441.933.94.933.499 0 .947-.368.947-.933zm7.406 1.717h-1.096l-1.154-1.731H40.7v1.731h-.911v-4.87h1.965c1.083 0 1.566.785 1.566 1.577 0 .7-.377 1.385-1.246 1.526l1.254 1.767zM40.7 52.86v1.526h.983c.477 0 .69-.396.69-.756 0-.354-.206-.77-.661-.77H40.7zm7.997 2.883h-1.83l-.449 1.18h-.968l1.837-4.87h.983l1.837 4.87h-.961l-.449-1.18zm-1.524-.792h1.225l-.62-1.858-.605 1.858zm8.959 1.972h-.833l-1.895-3.201v3.201h-.905v-4.87h.848l1.873 3.167v-3.166h.912v4.87zm2.59-4.87h3.683v.828h-1.381v4.042h-.92V52.88h-1.381v-.827zm9.38 3.47c0-.586.277-1.038.783-1.257-.306-.148-.527-.495-.527-.94 0-.686.577-1.28 1.374-1.307a1.54 1.54 0 0 1 1.332.65l-.733.445c-.115-.148-.271-.262-.492-.262-.363 0-.556.262-.556.524 0 .134.093.593.592.593h.861v-.58h.812v.58h.591v.7h-.59v.805c0 .545.106.757.69.757v.763c-.684-.007-1.118-.127-1.289-.58-.214.375-.762.58-1.203.58-.947 0-1.646-.622-1.646-1.47zm.918-.049c.05.41.35.679.826.679.449 0 .89-.318.89-.997v-.487h-.89c-.64 0-.855.495-.826.805zm12.191-1.152c.613.149.912.714.912 1.138 0 .792-.57 1.463-1.524 1.463h-2.073v-4.87h1.923c.862 0 1.41.51 1.41 1.323 0 .353-.156.763-.648.946zm-1.773.446v1.35h1.11c.4 0 .62-.34.62-.672 0-.318-.22-.678-.64-.678h-1.09zm.947-.756c.328 0 .527-.262.527-.587 0-.346-.2-.565-.556-.565h-.918v1.152h.947zm4.437 2.911v-4.87h.903v4.87h-.903zm3.908-4.87h3.034v.807h-2.13v1.265h1.867v.798h-1.866v1.195h2.2v.805H88.73v-4.87zm9.393 4.87h-1.096l-1.154-1.731h-.377v1.731h-.912v-4.87h1.965c1.083 0 1.567.785 1.567 1.577 0 .7-.377 1.385-1.246 1.526l1.253 1.767zm-2.627-4.063v1.526h.982c.477 0 .691-.396.691-.756 0-.354-.207-.77-.662-.77h-1.011zm9.15-.806v4.87h-.918v-2.015h-1.966v2.014h-.905v-4.87h.905v2.043h1.966v-2.042h.918zm5.64 3.689h-1.83l-.45 1.18h-.968l1.838-4.87h.982l1.838 4.87h-.961l-.449-1.18zm-1.524-.792h1.225l-.62-1.858-.605 1.858zm8.025.255v-3.152h.912v3.152c0 1.088-.862 1.788-1.859 1.788s-1.865-.7-1.865-1.788v-3.152h.925v3.152c0 .565.442.933.94.933.499 0 .947-.368.947-.933zm4.494.297c.014.353.32.685.847.685.491 0 .79-.254.812-.586.021-.325-.2-.537-.677-.665l-.605-.155c-1.068-.311-1.239-.926-1.239-1.357 0-.855.748-1.428 1.652-1.428.926 0 1.63.559 1.63 1.47h-.91c0-.381-.278-.636-.734-.636-.406 0-.734.227-.734.573 0 .155.057.417.584.558l.606.177c1.096.297 1.381.911 1.338 1.484-.042.876-.826 1.378-1.723 1.378-1.047 0-1.759-.664-1.759-1.498h.912zM57.017 25.077c.173 0 .313.139.313.31 0 .171-.14.31-.313.31h-7.539a.312.312 0 0 1-.312-.31c0-.171.14-.31.312-.31h7.54zM46.743 26.97c.172 0 .312.139.312.31 0 .17-.14.31-.312.31h-7.231a.312.312 0 0 1-.313-.31c0-.171.14-.31.313-.31h7.23zm-7.231-3.168a.312.312 0 0 1-.313-.31c0-.171.14-.31.313-.31h6.573c.173 0 .313.139.313.31 0 .171-.14.31-.313.31h-6.573zm5.571 1.584c0 .171-.14.31-.312.31h-6.574a.312.312 0 0 1-.313-.31c0-.171.14-.31.313-.31h6.574c.172 0 .312.139.312.31zm4.756-1.289a.312.312 0 0 1-.222-.091l-.657-.652a.307.307 0 0 1 0-.439.322.322 0 0 1 .443 0l.657.652a.307.307 0 0 1 0 .439.312.312 0 0 1-.221.091zm1.75-.091l-.657-.652a.307.307 0 0 1 0-.439.322.322 0 0 1 .443 0l.657.652a.307.307 0 0 1 0 .439.313.313 0 0 1-.442 0zm1.973 0l-.658-.652a.307.307 0 0 1 0-.44.313.313 0 0 1 .442 0l.658.653a.307.307 0 0 1 0 .439.312.312 0 0 1-.442 0zm-3.287 2.76c.122-.12.32-.12.442 0a.307.307 0 0 1 0 .439l-.657.652a.312.312 0 0 1-.534-.22c0-.083.033-.16.092-.219l.657-.652zm1.972 0c.122-.12.32-.12.442 0a.306.306 0 0 1 0 .439l-.657.652a.312.312 0 0 1-.442 0 .307.307 0 0 1 0-.439l.657-.652zm1.972 0c.122-.12.32-.12.442 0a.307.307 0 0 1 0 .439l-.657.652a.312.312 0 0 1-.534-.22c0-.083.033-.16.092-.22l.657-.651zm-6.946-1.853c.263 0 .477.212.477.473a.476.476 0 0 1-.477.473.476.476 0 0 1-.477-.473c0-.261.214-.473.477-.473zm31.688.163c.172 0 .313.139.313.31 0 .171-.14.31-.313.31h-7.539a.312.312 0 0 1-.313-.31c0-.171.14-.31.313-.31h7.54zm9.967 1.894c.172 0 .312.139.312.31 0 .17-.14.31-.312.31h-7.23a.312.312 0 0 1-.314-.31c0-.171.14-.31.313-.31h7.23zm-6.574-3.168a.312.312 0 0 1-.313-.31c0-.171.14-.31.313-.31h6.574c.172 0 .312.139.312.31 0 .171-.14.31-.312.31h-6.574zm7.888 1.274c.173 0 .313.139.313.31 0 .171-.14.31-.313.31H83.67a.312.312 0 0 1-.313-.31c0-.171.14-.31.313-.31h6.573zm-10.984-2.252a.312.312 0 0 1 .313.31.306.306 0 0 1-.092.22l-.657.652a.312.312 0 0 1-.442 0 .307.307 0 0 1 0-.439l.657-.652a.331.331 0 0 1 .221-.091zm-2.63 1.273a.309.309 0 0 1-.221-.53l.658-.652a.312.312 0 0 1 .22-.091h.001a.31.31 0 0 1 .221.53l-.657.652a.312.312 0 0 1-.221.091zm-1.971 0a.31.31 0 0 1-.221-.53l.657-.652a.348.348 0 0 1 .222-.091.312.312 0 0 1 .312.31.307.307 0 0 1-.092.22l-.657.652a.312.312 0 0 1-.221.091zm3.507 2.669l.658.652a.31.31 0 0 1-.221.53.312.312 0 0 1-.221-.091l-.658-.652a.31.31 0 0 1 0-.439.315.315 0 0 1 .442 0zm-1.972 0l.658.652c.059.058.091.136.091.219a.312.312 0 0 1-.313.31.311.311 0 0 1-.22-.09l-.658-.652a.307.307 0 0 1 0-.439c.122-.12.32-.121.442 0zm-1.972 0l.658.652a.31.31 0 0 1-.221.53.311.311 0 0 1-.222-.092l-.657-.651a.306.306 0 0 1 0-.439c.122-.121.32-.12.442 0zm7.423-1.38a.476.476 0 0 1-.477.473.476.476 0 0 1-.476-.473.476.476 0 1 1 .954 0zM68.28 12.952c.16 0 .291.13.291.289v14.466a.243.243 0 0 1-.419.167l-3.931-4.07-3.932 4.07a.243.243 0 0 1-.419-.167V13.241c0-.16.13-.29.292-.29h.127c.16 0 .29.13.29.29v13.314l1.345-1.391-.056-13.898c0-.159.13-.29.29-.29h.128a.29.29 0 0 1 .292.288l.038 9.492h3.244l-.012-9.49a.29.29 0 0 1 .291-.29h.126c.16 0 .292.13.292.289l.019 13.959 1.286 1.331V13.241c0-.16.13-.29.29-.29h.128zm-2.415 11.536l-.004-3.027h-3.243l.013 2.971 1.59-1.646 1.644 1.702zm-1.709-5.3a.29.29 0 0 1-.291-.29V9.29c0-.16.13-.289.291-.289h.127c.16 0 .291.13.291.289v9.61a.29.29 0 0 1-.291.289h-.127z"/>
</svg>
