<svg xmlns="http://www.w3.org/2000/svg" width="48" height="48" viewBox="0 0 48 48">
    <path fill="#BAA965" fill-rule="evenodd" d="M28.258 39.234L24 34.922l-4.118 4.17-.031-7.527h8.397l.01 7.669zM34.51 10.01c.416 0 .754.328.754.733v36.644c0 .551-.692.821-1.084.423L24 37.5 13.82 47.81c-.394.398-1.085.128-1.085-.423V10.742c0-.404.337-.732.754-.732h.329c.416 0 .754.328.754.732V44.47l3.48-3.525-.144-35.204a.744.744 0 0 1 .75-.736h.334c.2 0 .387.075.53.212a.716.716 0 0 1 .223.517l.1 24.047h8.4l-.032-24.043c0-.196.078-.38.22-.518a.76.76 0 0 1 .534-.215h.327c.416 0 .755.328.756.732l.048 35.36 3.33 3.373V10.743c0-.405.338-.733.755-.733h.328zM23.832 25.807a.744.744 0 0 1-.754-.732V.732c0-.403.338-.732.754-.732h.329c.416 0 .754.329.754.732v24.343a.744.744 0 0 1-.754.732h-.329z"/>
</svg>
